<?xml version="1.0" encoding="UTF-8"?>
<svg xmlns="http://www.w3.org/2000/svg" viewBox="0 0 220 56" role="img" aria-label="DinkMap">
  <defs>
    <radialGradient id="lm-ball" cx="0.35" cy="0.3" r="0.85">
      <stop offset="0" stop-color="#ffffff"/>
      <stop offset="0.55" stop-color="#fde07a"/>
      <stop offset="1" stop-color="#f5b400"/>
    </radialGradient>
  </defs>
  <g transform="translate(2 2)">
    <path d="M26 0C12 0 1 9.6 1 22c0 14.4 19 28.8 22.6 31.4a3 3 0 0 0 3.5 0C30.7 50.8 50 36.4 50 22 50 9.6 39.4 0 26 0Z" fill="#0f6f48"/>
    <circle cx="26" cy="22" r="11" fill="url(#lm-ball)"/>
    <g fill="#0f6f48">
      <circle cx="22" cy="18" r="1.05"/>
      <circle cx="27.5" cy="16.4" r="1.05"/>
      <circle cx="30.8" cy="20.4" r="1.05"/>
      <circle cx="29.6" cy="25.6" r="1.05"/>
      <circle cx="24.6" cy="28" r="1.05"/>
      <circle cx="20" cy="24.4" r="1.05"/>
      <circle cx="25.8" cy="22" r="1.05"/>
      <circle cx="21.6" cy="22" r="1.05"/>
      <circle cx="28.4" cy="22" r="1.05"/>
      <circle cx="25" cy="24.6" r="1.05"/>
      <circle cx="26.6" cy="19.2" r="1.05"/>
    </g>
  </g>
  <g transform="translate(64 12)" fill="#0e2e26" font-family="ui-sans-serif, -apple-system, system-ui, sans-serif" font-weight="700">
    <text x="0" y="26" font-size="28" letter-spacing="-0.6">Dink<tspan fill="#0f6f48">Map</tspan></text>
  </g>
</svg>
