<?xml version="1.0" encoding="UTF-8"?>
<svg xmlns="http://www.w3.org/2000/svg" viewBox="0 0 220 56" role="img" aria-label="DinkMap">
  <defs>
    <radialGradient id="lm-ball" cx="0.35" cy="0.3" r="0.85">
      <stop offset="0" stop-color="#ffffff"/>
      <stop offset="0.55" stop-color="#fde07a"/>
      <stop offset="1" stop-color="#f5b400"/>
    </radialGradient>
  </defs>
  <g transform="translate(2 2)">
    <path d="M26 0C12 0 1 9.6 1 22c0 14.4 19 28.8 22.6 31.4a3 3 0 0 0 3.5 0C30.7 50.8 50 36.4 50 22 50 9.6 39.4 0 26 0Z" fill="#0f6f48"/>
    <circle cx="26" cy="22" r="11" fill="url(#lm-ball)"/>
    <g fill="#0f6f48">
      <!-- center -->
      <circle cx="26" cy="22" r="1.1"/>
      <!-- inner ring: 6 holes at r=4.5, 60° apart, starting at top -->
      <circle cx="26" cy="17.5" r="1.1"/>
      <circle cx="29.897" cy="19.75" r="1.1"/>
      <circle cx="29.897" cy="24.25" r="1.1"/>
      <circle cx="26" cy="26.5" r="1.1"/>
      <circle cx="22.103" cy="24.25" r="1.1"/>
      <circle cx="22.103" cy="19.75" r="1.1"/>
      <!-- outer ring: 12 holes at r=8, 30° apart, starting at top -->
      <circle cx="26" cy="14" r="1.1"/>
      <circle cx="30" cy="15.072" r="1.1"/>
      <circle cx="32.928" cy="18" r="1.1"/>
      <circle cx="34" cy="22" r="1.1"/>
      <circle cx="32.928" cy="26" r="1.1"/>
      <circle cx="30" cy="28.928" r="1.1"/>
      <circle cx="26" cy="30" r="1.1"/>
      <circle cx="22" cy="28.928" r="1.1"/>
      <circle cx="19.072" cy="26" r="1.1"/>
      <circle cx="18" cy="22" r="1.1"/>
      <circle cx="19.072" cy="18" r="1.1"/>
      <circle cx="22" cy="15.072" r="1.1"/>
    </g>
  </g>
  <g transform="translate(64 12)" fill="#0e2e26" font-family="ui-sans-serif, -apple-system, system-ui, sans-serif" font-weight="700">
    <text x="0" y="26" font-size="28" letter-spacing="-0.6">Dink<tspan fill="#0f6f48">Map</tspan></text>
  </g>
</svg>
