<?xml version="1.0" encoding="UTF-8"?>
<svg xmlns="http://www.w3.org/2000/svg" viewBox="0 0 64 64">
  <defs>
    <linearGradient id="dm-bg" x1="0" y1="0" x2="0" y2="1">
      <stop offset="0" stop-color="#1f8f5f"/>
      <stop offset="1" stop-color="#0f6f48"/>
    </linearGradient>
    <radialGradient id="dm-ball" cx="0.35" cy="0.3" r="0.85">
      <stop offset="0" stop-color="#ffffff"/>
      <stop offset="0.55" stop-color="#fde07a"/>
      <stop offset="1" stop-color="#f5b400"/>
    </radialGradient>
  </defs>
  <rect x="0" y="0" width="64" height="64" rx="14" fill="url(#dm-bg)"/>
  <path d="M32 9c-9.4 0-17 7.4-17 16.5 0 11.4 13.7 24.6 16 26.7a1.6 1.6 0 0 0 2 0c2.3-2.1 16-15.3 16-26.7C49 16.4 41.4 9 32 9Z" fill="#ffffff" opacity="0.96"/>
  <circle cx="32" cy="25.5" r="9" fill="url(#dm-ball)"/>
  <g fill="#0f6f48" opacity="0.9">
    <circle cx="29" cy="22" r="0.9"/>
    <circle cx="33.6" cy="20.7" r="0.9"/>
    <circle cx="36.4" cy="24" r="0.9"/>
    <circle cx="35.4" cy="28.4" r="0.9"/>
    <circle cx="31" cy="30.5" r="0.9"/>
    <circle cx="27" cy="27.5" r="0.9"/>
    <circle cx="32" cy="25.5" r="0.9"/>
    <circle cx="28.2" cy="25.4" r="0.9"/>
    <circle cx="34" cy="25.2" r="0.9"/>
    <circle cx="30.6" cy="27.6" r="0.9"/>
    <circle cx="33" cy="22.8" r="0.9"/>
  </g>
</svg>
